# xmcd CD database file
#
# Track frame offsets:
#	150
#	13943
#	27589
#	48218
#	64559
#	74782
#	90641
#	110336
#	127394
#	140890
#	159891
#	176739
#
# Disc length: 2697 seconds
#
# Revision: 0
# Processed by: cddbd v1.5.2PL0 Copyright (c) Steve Scherf et al.
# Submitted via: CDex 1.70beta2
#
DISCID=b20a870c
DTITLE=Buckets of Rain - Grey
DYEAR=2006
DGENRE=Blues
TTITLE0=Grey
TTITLE1=Letter
TTITLE2=It Ain't Right
TTITLE3=Us, Part 1
TTITLE4=Could You Be
TTITLE5=Just Waiting
TTITLE6=All Fall Down
TTITLE7=Learning
TTITLE8=Flash In The Pan
TTITLE9=Sometimes
TTITLE10=Lonely Too Long
TTITLE11=Windows
EXTD=YEAR: 2006
EXTT0=
EXTT1=
EXTT2=
EXTT3=
EXTT4=
EXTT5=
EXTT6=
EXTT7=
EXTT8=
EXTT9=
EXTT10=
EXTT11=
PLAYORDER=
